<?xml version="1.0" standalone="no"?>
<svg xmlns="http://www.w3.org/2000/svg"
 width="85" height="85" viewBox="0 0 850 850"
 preserveAspectRatio="xMidYMid meet">
<g transform="translate(-40,930) scale(1,-1)" fill="#197AFA" stroke="none">
<path d="M395 920 c-86 -35 -98 -158 -21 -213 28 -20 46 -22 170 -25 183 -5
221 1 263 43 27 27 33 41 33 74 0 23 -7 55 -15 71 -27 53 -56 60 -242 59 -92
0 -177 -4 -188 -9z"/>
<path d="M232 616 c-80 -44 -81 -170 -2 -211 42 -22 507 -22 550 0 42 22 60
53 60 107 0 39 -5 52 -34 82 l-33 36 -259 0 c-191 -1 -265 -4 -282 -14z"/>
<path d="M91 305 c-62 -53 -62 -137 0 -190 l31 -25 314 0 c338 0 353 2 388 52
9 13 16 43 16 70 0 39 -5 52 -34 82 l-33 36 -326 0 -325 0 -31 -25z"/>
</g>
</svg>
