<?xml version="1.0" standalone="no"?>
<svg xmlns="http://www.w3.org/2000/svg"
 width="432" height="101" viewBox="0 0 4320 1010"
 preserveAspectRatio="xMidYMid meet">
<g transform="translate(0,1010) scale(1,-1)" stroke="none">
<!-- Icon (blue) -->
<g fill="#197AFA">
<path d="M395 920 c-86 -35 -98 -158 -21 -213 28 -20 46 -22 170 -25 183 -5
221 1 263 43 27 27 33 41 33 74 0 23 -7 55 -15 71 -27 53 -56 60 -242 59 -92
0 -177 -4 -188 -9z"/>
<path d="M232 616 c-80 -44 -81 -170 -2 -211 42 -22 507 -22 550 0 42 22 60
53 60 107 0 39 -5 52 -34 82 l-33 36 -259 0 c-191 -1 -265 -4 -282 -14z"/>
<path d="M91 305 c-62 -53 -62 -137 0 -190 l31 -25 314 0 c338 0 353 2 388 52
9 13 16 43 16 70 0 39 -5 52 -34 82 l-33 36 -326 0 -325 0 -31 -25z"/>
</g>
<!-- Text (white) -->
<g fill="#FFFFFF">
<path d="M3221 902 c-5 -9 -78 -193 -161 -407 -84 -215 -155 -396 -157 -403
-4 -10 7 -12 48 -10 l53 3 50 128 49 127 166 -2 166 -3 50 -127 50 -128 53 0
c30 0 52 4 50 9 -1 5 -75 194 -163 420 l-159 411 -43 0 c-30 0 -45 -5 -52 -18z
m74 -172 c10 -30 37 -108 61 -173 24 -65 44 -120 44 -122 0 -3 -58 -5 -130 -5
-71 0 -130 2 -130 5 0 2 22 64 50 137 27 73 55 154 62 180 6 27 15 45 19 40 4
-4 14 -32 24 -62z"/>
<path d="M1040 495 l0 -415 50 0 50 0 2 172 3 173 81 3 81 3 102 -176 103
-175 60 0 60 0 -19 33 c-11 17 -62 101 -114 186 -62 102 -90 156 -81 159 38
13 108 72 126 107 29 56 29 174 0 230 -46 88 -126 115 -346 115 l-158 0 0
-415z m350 303 c55 -28 70 -56 70 -129 0 -113 -66 -158 -232 -159 l-88 0 0
155 0 155 103 0 c87 0 110 -4 147 -22z"/>
<path d="M1730 495 l0 -415 235 0 235 0 0 45 0 45 -182 2 -183 3 -3 148 -3
147 171 0 170 0 0 45 0 45 -167 2 -168 3 -3 127 -3 128 183 2 183 3 3 43 3 42
-235 0 -236 0 0 -415z"/>
<path d="M2240 903 c0 -5 260 -739 287 -810 3 -8 25 -13 57 -13 l51 0 145 406
c80 224 147 411 148 415 2 5 -21 9 -51 9 -51 0 -56 -2 -65 -27 -122 -345 -180
-515 -203 -588 -15 -50 -29 -83 -32 -75 -3 8 -21 67 -41 130 -20 63 -71 214
-114 335 l-78 220 -52 3 c-29 2 -52 0 -52 -5z"/>
<path d="M3620 865 l0 -45 130 0 130 0 0 -370 0 -370 50 0 50 0 0 370 0 370
130 0 130 0 0 45 0 45 -310 0 -310 0 0 -45z"/>
</g>
</g>
</svg>
